# xmcd
#
# Track frame offsets: 
#        150
#        10930
#        29185
#        80698
#        106235
#        121523
#        135578
#        155578
#        178378
#        198398
#        238753
#        268598
#
# Disc length: 4032 seconds
#
# Revision: 0
# Processed by: cddbd v1.5.1PL0 Copyright (c) Steve Scherf et al.
# Submitted via: ExactAudioCopy v0.95a5
#
DISCID=a40fbe0c
DTITLE=Stevie Ray Vaughan - Little Lover Boy
DYEAR=1984
DGENRE=Blues
TTITLE0=Scuttle Buttin'
TTITLE1=Testify (I Wanna)
TTITLE2=Voodoo Chile (Slight Return)
TTITLE3=Things (That) I Used To Do
TTITLE4=Honey Bee
TTITLE5=Love Struck Baby
TTITLE6=Cold Shot
TTITLE7=Couldn't Stand The Waether
TTITLE8=Pride And Joy
TTITLE9=Texas Flood
TTITLE10=Little Wing
TTITLE11=3rd Stone From The Sun
EXTD=
EXTT0=
EXTT1=
EXTT2=
EXTT3=
EXTT4=
EXTT5=
EXTT6=
EXTT7=
EXTT8=
EXTT9=
EXTT10=
EXTT11=
PLAYORDER=
